<?xml version="1.0" encoding="UTF-8" standalone="no"?>
<!DOCTYPE svg PUBLIC "-//W3C//DTD SVG 1.1//EN" "http://www.w3.org/Graphics/SVG/1.1/DTD/svg11.dtd">
<svg xmlns="http://www.w3.org/2000/svg" version="1.1" viewBox="0.00 0.00 640.00 640.00">
<path fill="#ffffff" d="
  M 0.00 0.00
  L 640.00 0.00
  L 640.00 640.00
  L 0.00 640.00
  L 0.00 0.00
  Z
  M 319.75 235.54
  Q 308.96 221.57 292.83 229.04
  Q 292.35 229.26 291.99 228.86
  L 276.23 210.93
  L 271.38 205.58
  A 1.14 1.10 -20.1 0 0 270.54 205.21
  L 246.97 205.22
  A 1.11 1.09 -14.0 0 1 246.00 204.65
  C 243.36 199.89 238.23 197.07 233.21 199.37
  C 224.16 203.51 226.04 216.96 235.70 218.15
  C 239.99 218.67 243.86 216.45 245.77 212.66
  A 1.70 1.68 -76.6 0 1 247.28 211.72
  L 267.55 211.73
  A 1.15 1.14 68.6 0 1 268.39 212.10
  L 272.32 216.37
  L 287.10 233.28
  Q 287.46 233.69 287.11 234.10
  Q 283.47 238.36 282.97 243.96
  A 1.13 1.11 78.9 0 1 282.40 244.83
  Q 277.29 247.71 273.17 251.88
  Q 272.81 252.23 272.31 252.25
  C 269.28 252.35 264.93 252.89 262.28 251.28
  Q 260.62 250.27 259.14 248.93
  Q 258.76 248.58 258.83 248.07
  Q 259.84 240.77 254.38 237.51
  C 244.30 231.47 234.28 244.67 242.14 252.62
  Q 247.24 257.78 254.28 254.11
  A 0.92 0.92 0.0 0 1 255.28 254.20
  L 260.89 258.58
  A 1.06 1.01 62.3 0 0 261.51 258.79
  L 268.03 258.78
  Q 268.55 258.78 268.43 259.29
  C 267.61 262.70 267.82 265.78 266.38 269.06
  Q 263.98 274.56 262.94 280.63
  A 0.70 0.70 0.0 0 1 262.25 281.21
  L 249.24 281.21
  Q 248.59 281.21 248.23 280.67
  C 239.64 267.79 223.60 280.70 231.89 291.38
  C 236.63 297.50 245.89 295.26 248.59 288.18
  Q 248.76 287.75 249.23 287.74
  L 262.27 287.68
  Q 262.88 287.68 262.96 288.28
  Q 263.83 294.45 267.44 299.51
  A 0.60 0.59 32.3 0 1 267.54 299.95
  L 265.91 309.84
  A 0.52 0.51 4.6 0 1 265.40 310.27
  L 255.37 310.24
  A 1.76 1.70 -63.0 0 0 254.32 310.60
  L 248.87 314.72
  A 1.39 1.39 0.0 0 1 247.38 314.83
  C 240.12 310.88 231.49 317.08 233.02 325.03
  C 235.32 337.03 253.45 335.56 252.40 320.93
  Q 252.37 320.42 252.74 320.06
  C 254.48 318.42 256.04 317.14 258.61 316.92
  Q 262.79 316.55 266.98 316.91
  Q 270.31 325.74 279.49 327.93
  Q 281.15 328.33 282.87 328.87
  Q 283.37 329.03 283.52 329.53
  Q 284.92 334.02 287.89 337.67
  A 0.67 0.67 0.0 0 1 287.87 338.53
  L 270.78 358.11
  A 1.10 1.10 0.0 0 1 269.95 358.49
  L 254.02 358.48
  A 0.93 0.93 0.0 0 1 253.19 357.97
  C 250.15 351.87 243.14 349.90 237.85 354.23
  C 233.80 357.54 233.35 364.36 236.82 368.17
  C 241.86 373.69 249.70 372.20 253.16 365.49
  Q 253.42 364.97 254.00 364.98
  L 272.49 365.01
  A 2.49 2.47 20.0 0 0 274.38 364.14
  L 293.03 342.56
  Q 293.36 342.17 293.84 342.34
  Q 309.99 348.22 320.09 334.36
  Q 330.33 347.27 345.20 341.91
  Q 345.71 341.73 346.06 342.14
  L 365.03 363.99
  A 2.94 2.94 0.0 0 0 367.25 365.00
  L 385.50 365.00
  A 0.92 0.92 0.0 0 1 386.33 365.52
  C 390.17 373.42 401.30 373.69 404.54 365.25
  C 408.18 355.75 397.03 347.93 388.99 354.38
  C 387.80 355.33 387.08 356.72 386.26 358.05
  Q 386.01 358.45 385.54 358.45
  L 370.46 358.43
  A 2.90 2.87 -20.1 0 1 368.27 357.43
  L 351.50 338.06
  A 0.73 0.73 0.0 0 1 351.53 337.08
  Q 355.04 333.44 356.47 328.57
  A 0.80 0.78 5.3 0 1 357.16 328.01
  Q 367.92 327.02 372.34 317.41
  Q 372.56 316.93 373.08 316.90
  Q 376.83 316.64 380.61 316.81
  C 383.55 316.94 385.38 318.36 387.46 320.21
  Q 387.85 320.56 387.75 321.06
  Q 386.77 326.09 389.55 329.44
  C 397.43 338.89 412.49 328.45 405.25 317.73
  Q 400.85 311.22 391.98 314.90
  A 0.72 0.72 0.0 0 1 391.26 314.80
  L 385.77 310.58
  Q 385.36 310.26 384.83 310.26
  L 374.46 310.23
  Q 373.90 310.23 373.90 309.67
  Q 373.93 304.74 372.37 300.05
  A 1.18 1.15 53.5 0 1 372.51 299.03
  Q 375.85 294.04 376.78 288.10
  A 0.68 0.68 0.0 0 1 377.45 287.53
  L 390.52 287.55
  A 0.86 0.83 -10.5 0 1 391.29 288.06
  C 394.05 294.46 401.18 296.98 406.76 292.59
  C 413.56 287.23 410.22 276.45 401.79 275.19
  Q 395.82 274.30 391.92 280.20
  Q 391.42 280.96 390.50 280.96
  L 377.74 280.94
  Q 377.27 280.94 377.19 280.48
  Q 376.14 274.09 373.59 268.16
  C 372.27 265.09 372.33 262.28 371.76 259.07
  A 0.47 0.47 0.0 0 1 372.24 258.52
  L 378.01 258.74
  A 1.46 1.42 26.4 0 0 378.95 258.44
  L 384.68 254.12
  Q 385.11 253.80 385.60 254.01
  Q 393.97 257.63 398.56 251.42
  C 405.58 241.92 393.34 230.74 384.38 238.21
  Q 380.27 241.64 381.18 247.86
  Q 381.26 248.38 380.89 248.74
  Q 379.45 250.16 377.76 251.23
  C 375.10 252.91 371.60 252.32 368.51 252.25
  Q 368.02 252.24 367.66 251.90
  L 365.00 249.39
  L 357.56 244.21
  A 1.10 1.09 12.4 0 1 357.10 243.50
  Q 356.20 238.24 353.18 233.86
  Q 352.86 233.41 353.22 232.99
  L 371.19 212.12
  A 1.78 1.77 20.1 0 1 372.54 211.50
  L 393.24 211.51
  A 0.70 0.67 -13.4 0 1 393.85 211.87
  C 400.92 225.26 418.58 214.21 410.95 202.52
  C 406.68 195.97 397.37 197.79 393.96 204.55
  A 0.81 0.80 13.0 0 1 393.24 204.99
  L 369.24 204.97
  Q 368.80 204.97 368.52 205.30
  L 348.39 228.60
  A 0.46 0.45 32.6 0 1 347.86 228.71
  Q 330.88 220.51 319.75 235.54
  Z
  M 302.74 411.52
  L 317.45 411.50
  Q 317.89 411.50 318.03 411.92
  Q 319.43 416.20 320.73 420.51
  C 321.73 423.84 323.03 426.54 327.00 424.81
  A 1.02 1.02 0.0 0 0 327.56 423.56
  Q 320.72 403.24 313.93 382.73
  Q 313.18 380.45 312.00 379.70
  C 309.91 378.36 307.16 379.41 306.34 381.87
  Q 299.51 402.55 292.57 423.22
  Q 292.41 423.71 292.63 424.17
  C 293.90 426.77 298.01 424.69 298.69 422.45
  Q 300.27 417.27 301.94 412.10
  Q 302.12 411.52 302.74 411.52
  Z
  M 344.2864 381.3550
  A 2.15 2.15 0.0 0 0 342.1402 379.2012
  L 340.7602 379.1988
  A 2.15 2.15 0.0 0 0 338.6064 381.3451
  L 338.5336 423.0650
  A 2.15 2.15 0.0 0 0 340.6798 425.2188
  L 342.0598 425.2212
  A 2.15 2.15 0.0 0 0 344.2136 423.0749
  L 344.2864 381.3550
  Z"
/>
<path fill="#7b75e3" d="
  M 365.00 249.39
  Q 365.14 250.04 365.54 250.55
  Q 365.89 251.00 365.44 251.33
  L 361.43 254.30
  L 357.59 251.21
  Q 357.04 250.76 356.82 251.44
  Q 352.70 264.13 339.51 266.28
  A 0.62 0.62 0.0 0 0 339.00 266.74
  Q 338.00 271.03 334.75 273.97
  Q 334.27 274.40 333.63 274.36
  Q 330.67 274.19 330.46 271.28
  Q 330.42 270.73 330.74 270.29
  Q 335.55 263.54 332.84 255.65
  C 331.42 251.53 336.90 249.64 338.25 253.54
  Q 339.29 256.50 339.60 259.79
  A 0.48 0.48 0.0 0 0 340.19 260.21
  C 349.41 258.03 353.93 248.40 349.92 239.83
  C 345.04 229.39 329.33 229.88 324.71 240.26
  Q 323.28 243.47 323.28 250.45
  Q 323.26 287.52 323.27 324.58
  Q 323.27 325.93 323.61 327.18
  Q 324.00 328.63 324.33 329.71
  Q 323.29 334.26 320.09 334.36
  Q 309.99 348.22 293.84 342.34
  Q 293.36 342.17 293.03 342.56
  L 274.38 364.14
  A 2.49 2.47 20.0 0 1 272.49 365.01
  L 254.00 364.98
  Q 253.42 364.97 253.16 365.49
  C 249.70 372.20 241.86 373.69 236.82 368.17
  C 233.35 364.36 233.80 357.54 237.85 354.23
  C 243.14 349.90 250.15 351.87 253.19 357.97
  A 0.93 0.93 0.0 0 0 254.02 358.48
  L 269.95 358.49
  A 1.10 1.10 0.0 0 0 270.78 358.11
  L 287.87 338.53
  A 0.67 0.67 0.0 0 0 287.89 337.67
  Q 284.92 334.02 283.52 329.53
  Q 283.37 329.03 282.87 328.87
  Q 281.15 328.33 279.49 327.93
  Q 270.31 325.74 266.98 316.91
  Q 267.23 315.37 268.68 314.34
  Q 269.07 314.05 269.25 313.59
  Q 269.77 312.21 270.52 311.02
  Q 271.10 310.11 272.35 310.46
  Q 272.49 320.97 282.43 322.69
  Q 282.97 322.78 283.05 322.24
  Q 284.91 309.29 297.21 304.96
  A 0.67 0.66 78.0 0 0 297.64 304.28
  C 297.36 301.22 298.25 286.14 303.76 287.06
  C 307.59 287.70 305.81 291.48 304.99 293.57
  C 301.97 301.23 303.19 308.41 309.11 314.06
  C 310.02 314.94 311.66 315.77 312.61 316.98
  C 314.90 319.92 311.12 322.85 308.30 320.94
  Q 302.63 317.10 299.96 311.49
  A 1.55 1.55 0.0 0 0 297.89 310.76
  C 281.71 318.59 288.84 341.41 306.13 337.91
  Q 312.68 336.58 315.44 330.69
  Q 316.76 327.89 316.76 322.60
  Q 316.70 284.54 316.70 246.50
  Q 316.70 243.74 315.55 240.66
  L 317.28 237.13
  Q 317.52 236.66 318.02 236.50
  Q 319.19 236.13 319.75 235.54
  Q 330.88 220.51 347.86 228.71
  A 0.46 0.45 32.6 0 0 348.39 228.60
  L 368.52 205.30
  Q 368.80 204.97 369.24 204.97
  L 393.24 204.99
  A 0.81 0.80 13.0 0 0 393.96 204.55
  C 397.37 197.79 406.68 195.97 410.95 202.52
  C 418.58 214.21 400.92 225.26 393.85 211.87
  A 0.70 0.67 -13.4 0 0 393.24 211.51
  L 372.54 211.50
  A 1.78 1.77 20.1 0 0 371.19 212.12
  L 353.22 232.99
  Q 352.86 233.41 353.18 233.86
  Q 356.20 238.24 357.10 243.50
  A 1.10 1.09 12.4 0 0 357.56 244.21
  L 365.00 249.39
  Z"
/>
<path fill="#16ccf9" d="
  M 276.23 210.93
  Q 272.63 212.80 272.32 216.37
  L 268.39 212.10
  A 1.15 1.14 68.6 0 0 267.55 211.73
  L 247.28 211.72
  A 1.70 1.68 -76.6 0 0 245.77 212.66
  C 243.86 216.45 239.99 218.67 235.70 218.15
  C 226.04 216.96 224.16 203.51 233.21 199.37
  C 238.23 197.07 243.36 199.89 246.00 204.65
  A 1.11 1.09 -14.0 0 0 246.97 205.22
  L 270.54 205.21
  A 1.14 1.10 -20.1 0 1 271.38 205.58
  L 276.23 210.93
  Z"
/>
<path fill="#5397eb" d="
  M 276.23 210.93
  L 291.99 228.86
  Q 292.35 229.26 292.83 229.04
  Q 308.96 221.57 319.75 235.54
  Q 319.19 236.13 318.02 236.50
  Q 317.52 236.66 317.28 237.13
  L 315.55 240.66
  Q 311.98 233.79 305.26 232.66
  C 286.97 229.57 281.93 255.75 299.78 260.47
  Q 300.30 260.61 300.40 260.08
  Q 300.96 257.08 301.58 254.09
  C 302.37 250.28 308.45 251.06 307.08 255.80
  C 305.63 260.84 305.72 266.26 308.94 270.30
  C 310.61 272.40 308.68 274.92 306.42 274.71
  C 303.78 274.45 301.75 269.60 301.13 267.42
  A 1.00 0.99 87.1 0 0 300.35 266.71
  Q 287.30 264.40 283.16 251.89
  Q 282.96 251.31 282.44 251.61
  C 275.59 255.60 271.36 263.28 274.73 271.13
  Q 274.98 271.72 275.46 271.29
  Q 279.68 267.50 284.79 265.04
  C 288.44 263.29 291.82 267.92 287.36 270.34
  C 281.93 273.29 276.44 276.25 277.16 283.50
  C 277.39 285.76 277.21 286.99 275.00 287.71
  A 2.44 2.43 -19.8 0 1 271.97 286.29
  C 270.49 282.57 272.60 278.85 271.08 275.50
  A 0.40 0.40 0.0 0 0 270.33 275.54
  Q 267.24 284.99 271.20 294.02
  A 0.53 0.53 0.0 0 0 272.05 294.18
  Q 276.97 289.38 283.70 289.53
  C 286.51 289.60 289.39 290.75 288.54 294.14
  A 2.50 2.50 0.0 0 1 285.48 295.94
  C 276.59 293.60 271.74 302.51 272.35 310.46
  Q 271.10 310.11 270.52 311.02
  Q 269.77 312.21 269.25 313.59
  Q 269.07 314.05 268.68 314.34
  Q 267.23 315.37 266.98 316.91
  Q 262.79 316.55 258.61 316.92
  C 256.04 317.14 254.48 318.42 252.74 320.06
  Q 252.37 320.42 252.40 320.93
  C 253.45 335.56 235.32 337.03 233.02 325.03
  C 231.49 317.08 240.12 310.88 247.38 314.83
  A 1.39 1.39 0.0 0 0 248.87 314.72
  L 254.32 310.60
  A 1.76 1.70 -63.0 0 1 255.37 310.24
  L 265.40 310.27
  A 0.52 0.51 4.6 0 0 265.91 309.84
  L 267.54 299.95
  A 0.60 0.59 32.3 0 0 267.44 299.51
  Q 263.83 294.45 262.96 288.28
  Q 262.88 287.68 262.27 287.68
  L 249.23 287.74
  Q 248.76 287.75 248.59 288.18
  C 245.89 295.26 236.63 297.50 231.89 291.38
  C 223.60 280.70 239.64 267.79 248.23 280.67
  Q 248.59 281.21 249.24 281.21
  L 262.25 281.21
  A 0.70 0.70 0.0 0 0 262.94 280.63
  Q 263.98 274.56 266.38 269.06
  C 267.82 265.78 267.61 262.70 268.43 259.29
  Q 268.55 258.78 268.03 258.78
  L 261.51 258.79
  A 1.06 1.01 62.3 0 1 260.89 258.58
  L 255.28 254.20
  A 0.92 0.92 0.0 0 0 254.28 254.11
  Q 247.24 257.78 242.14 252.62
  C 234.28 244.67 244.30 231.47 254.38 237.51
  Q 259.84 240.77 258.83 248.07
  Q 258.76 248.58 259.14 248.93
  Q 260.62 250.27 262.28 251.28
  C 264.93 252.89 269.28 252.35 272.31 252.25
  Q 272.81 252.23 273.17 251.88
  Q 277.29 247.71 282.40 244.83
  A 1.13 1.11 78.9 0 0 282.97 243.96
  Q 283.47 238.36 287.11 234.10
  Q 287.46 233.69 287.10 233.28
  L 272.32 216.37
  Q 272.63 212.80 276.23 210.93
  Z"
/>
<path fill="#ffffff" d="
  M 361.43 254.30
  Q 368.85 261.31 365.27 270.67
  A 0.57 0.56 -56.8 0 1 364.34 270.87
  C 362.29 268.81 356.44 264.15 353.09 264.36
  C 350.12 264.54 349.66 268.59 352.05 269.73
  C 358.02 272.57 364.49 276.24 362.60 284.23
  A 1.42 1.37 41.8 0 0 362.66 285.06
  Q 363.46 287.02 365.50 287.32
  A 2.41 2.41 0.0 0 0 368.12 285.70
  Q 369.26 282.25 368.42 278.25
  Q 367.99 276.21 368.75 275.26
  A 0.46 0.46 0.0 0 1 369.55 275.41
  Q 372.51 284.53 368.90 293.34
  A 0.58 0.57 -58.9 0 1 368.00 293.57
  Q 363.27 289.58 357.25 289.29
  C 354.20 289.14 350.79 290.16 351.72 293.99
  A 2.32 2.32 0.0 0 0 354.50 295.70
  C 369.90 292.10 373.66 320.02 357.78 322.37
  Q 357.24 322.45 357.16 321.91
  Q 355.23 308.97 343.00 304.72
  Q 342.46 304.53 342.50 303.97
  Q 343.07 296.23 339.94 289.23
  C 337.84 284.52 332.56 287.05 334.45 291.23
  Q 341.45 306.66 328.20 316.17
  C 325.43 318.17 327.85 322.26 330.94 321.06
  C 334.96 319.50 338.76 314.19 340.67 310.76
  Q 340.90 310.33 341.37 310.47
  C 357.73 315.40 352.92 339.46 335.99 337.97
  Q 328.36 337.29 324.33 329.71
  Q 324.00 328.63 323.61 327.18
  Q 323.27 325.93 323.27 324.58
  Q 323.26 287.52 323.28 250.45
  Q 323.28 243.47 324.71 240.26
  C 329.33 229.88 345.04 229.39 349.92 239.83
  C 353.93 248.40 349.41 258.03 340.19 260.21
  A 0.48 0.48 0.0 0 1 339.60 259.79
  Q 339.29 256.50 338.25 253.54
  C 336.90 249.64 331.42 251.53 332.84 255.65
  Q 335.55 263.54 330.74 270.29
  Q 330.42 270.73 330.46 271.28
  Q 330.67 274.19 333.63 274.36
  Q 334.27 274.40 334.75 273.97
  Q 338.00 271.03 339.00 266.74
  A 0.62 0.62 0.0 0 1 339.51 266.28
  Q 352.70 264.13 356.82 251.44
  Q 357.04 250.76 357.59 251.21
  L 361.43 254.30
  Z"
/>
<path fill="#ffffff" d="
  M 315.55 240.66
  Q 316.70 243.74 316.70 246.50
  Q 316.70 284.54 316.76 322.60
  Q 316.76 327.89 315.44 330.69
  Q 312.68 336.58 306.13 337.91
  C 288.84 341.41 281.71 318.59 297.89 310.76
  A 1.55 1.55 0.0 0 1 299.96 311.49
  Q 302.63 317.10 308.30 320.94
  C 311.12 322.85 314.90 319.92 312.61 316.98
  C 311.66 315.77 310.02 314.94 309.11 314.06
  C 303.19 308.41 301.97 301.23 304.99 293.57
  C 305.81 291.48 307.59 287.70 303.76 287.06
  C 298.25 286.14 297.36 301.22 297.64 304.28
  A 0.67 0.66 78.0 0 1 297.21 304.96
  Q 284.91 309.29 283.05 322.24
  Q 282.97 322.78 282.43 322.69
  Q 272.49 320.97 272.35 310.46
  C 271.74 302.51 276.59 293.60 285.48 295.94
  A 2.50 2.50 0.0 0 0 288.54 294.14
  C 289.39 290.75 286.51 289.60 283.70 289.53
  Q 276.97 289.38 272.05 294.18
  A 0.53 0.53 0.0 0 1 271.20 294.02
  Q 267.24 284.99 270.33 275.54
  A 0.40 0.40 0.0 0 1 271.08 275.50
  C 272.60 278.85 270.49 282.57 271.97 286.29
  A 2.44 2.43 -19.8 0 0 275.00 287.71
  C 277.21 286.99 277.39 285.76 277.16 283.50
  C 276.44 276.25 281.93 273.29 287.36 270.34
  C 291.82 267.92 288.44 263.29 284.79 265.04
  Q 279.68 267.50 275.46 271.29
  Q 274.98 271.72 274.73 271.13
  C 271.36 263.28 275.59 255.60 282.44 251.61
  Q 282.96 251.31 283.16 251.89
  Q 287.30 264.40 300.35 266.71
  A 1.00 0.99 87.1 0 1 301.13 267.42
  C 301.75 269.60 303.78 274.45 306.42 274.71
  C 308.68 274.92 310.61 272.40 308.94 270.30
  C 305.72 266.26 305.63 260.84 307.08 255.80
  C 308.45 251.06 302.37 250.28 301.58 254.09
  Q 300.96 257.08 300.40 260.08
  Q 300.30 260.61 299.78 260.47
  C 281.93 255.75 286.97 229.57 305.26 232.66
  Q 311.98 233.79 315.55 240.66
  Z"
/>
<path fill="#a94bdc" d="
  M 320.09 334.36
  Q 323.29 334.26 324.33 329.71
  Q 328.36 337.29 335.99 337.97
  C 352.92 339.46 357.73 315.40 341.37 310.47
  Q 340.90 310.33 340.67 310.76
  C 338.76 314.19 334.96 319.50 330.94 321.06
  C 327.85 322.26 325.43 318.17 328.20 316.17
  Q 341.45 306.66 334.45 291.23
  C 332.56 287.05 337.84 284.52 339.94 289.23
  Q 343.07 296.23 342.50 303.97
  Q 342.46 304.53 343.00 304.72
  Q 355.23 308.97 357.16 321.91
  Q 357.24 322.45 357.78 322.37
  C 373.66 320.02 369.90 292.10 354.50 295.70
  A 2.32 2.32 0.0 0 1 351.72 293.99
  C 350.79 290.16 354.20 289.14 357.25 289.29
  Q 363.27 289.58 368.00 293.57
  A 0.58 0.57 -58.9 0 0 368.90 293.34
  Q 372.51 284.53 369.55 275.41
  A 0.46 0.46 0.0 0 0 368.75 275.26
  Q 367.99 276.21 368.42 278.25
  Q 369.26 282.25 368.12 285.70
  A 2.41 2.41 0.0 0 1 365.50 287.32
  Q 363.46 287.02 362.66 285.06
  A 1.42 1.37 41.8 0 1 362.60 284.23
  C 364.49 276.24 358.02 272.57 352.05 269.73
  C 349.66 268.59 350.12 264.54 353.09 264.36
  C 356.44 264.15 362.29 268.81 364.34 270.87
  A 0.57 0.56 -56.8 0 0 365.27 270.67
  Q 368.85 261.31 361.43 254.30
  L 365.44 251.33
  Q 365.89 251.00 365.54 250.55
  Q 365.14 250.04 365.00 249.39
  L 367.66 251.90
  Q 368.02 252.24 368.51 252.25
  C 371.60 252.32 375.10 252.91 377.76 251.23
  Q 379.45 250.16 380.89 248.74
  Q 381.26 248.38 381.18 247.86
  Q 380.27 241.64 384.38 238.21
  C 393.34 230.74 405.58 241.92 398.56 251.42
  Q 393.97 257.63 385.60 254.01
  Q 385.11 253.80 384.68 254.12
  L 378.95 258.44
  A 1.46 1.42 26.4 0 1 378.01 258.74
  L 372.24 258.52
  A 0.47 0.47 0.0 0 0 371.76 259.07
  C 372.33 262.28 372.27 265.09 373.59 268.16
  Q 376.14 274.09 377.19 280.48
  Q 377.27 280.94 377.74 280.94
  L 390.50 280.96
  Q 391.42 280.96 391.92 280.20
  Q 395.82 274.30 401.79 275.19
  C 410.22 276.45 413.56 287.23 406.76 292.59
  C 401.18 296.98 394.05 294.46 391.29 288.06
  A 0.86 0.83 -10.5 0 0 390.52 287.55
  L 377.45 287.53
  A 0.68 0.68 0.0 0 0 376.78 288.10
  Q 375.85 294.04 372.51 299.03
  A 1.18 1.15 53.5 0 0 372.37 300.05
  Q 373.93 304.74 373.90 309.67
  Q 373.90 310.23 374.46 310.23
  L 384.83 310.26
  Q 385.36 310.26 385.77 310.58
  L 391.26 314.80
  A 0.72 0.72 0.0 0 0 391.98 314.90
  Q 400.85 311.22 405.25 317.73
  C 412.49 328.45 397.43 338.89 389.55 329.44
  Q 386.77 326.09 387.75 321.06
  Q 387.85 320.56 387.46 320.21
  C 385.38 318.36 383.55 316.94 380.61 316.81
  Q 376.83 316.64 373.08 316.90
  Q 372.56 316.93 372.34 317.41
  Q 367.92 327.02 357.16 328.01
  A 0.80 0.78 5.3 0 0 356.47 328.57
  Q 355.04 333.44 351.53 337.08
  A 0.73 0.73 0.0 0 0 351.50 338.06
  L 368.27 357.43
  A 2.90 2.87 -20.1 0 0 370.46 358.43
  L 385.54 358.45
  Q 386.01 358.45 386.26 358.05
  C 387.08 356.72 387.80 355.33 388.99 354.38
  C 397.03 347.93 408.18 355.75 404.54 365.25
  C 401.30 373.69 390.17 373.42 386.33 365.52
  A 0.92 0.92 0.0 0 0 385.50 365.00
  L 367.25 365.00
  A 2.94 2.94 0.0 0 1 365.03 363.99
  L 346.06 342.14
  Q 345.71 341.73 345.20 341.91
  Q 330.33 347.27 320.09 334.36
  Z"
/>
<path fill="#a94bdc" d="
  M 301.94 412.10
  Q 300.27 417.27 298.69 422.45
  C 298.01 424.69 293.90 426.77 292.63 424.17
  Q 292.41 423.71 292.57 423.22
  Q 299.51 402.55 306.34 381.87
  C 307.16 379.41 309.91 378.36 312.00 379.70
  Q 313.18 380.45 313.93 382.73
  Q 320.72 403.24 327.56 423.56
  A 1.02 1.02 0.0 0 1 327.00 424.81
  C 323.03 426.54 321.73 423.84 320.73 420.51
  Q 319.43 416.20 318.03 411.92
  Q 317.89 411.50 317.45 411.50
  L 302.74 411.52
  Q 302.12 411.52 301.94 412.10
  Z
  M 303.80 406.56
  Q 303.60 407.22 304.29 407.22
  L 315.92 407.25
  Q 316.41 407.25 316.27 406.78
  L 310.02 386.29
  Q 309.97 386.13 309.92 386.29
  L 303.80 406.56
  Z"
/>
<rect fill="#a94bdc" x="-2.84" y="-23.01" transform="translate(341.41,402.21) rotate(0.1)" width="5.68" height="46.02" rx="2.15"/>
<path fill="#ffffff" d="
  M 303.80 406.56
  L 309.92 386.29
  Q 309.97 386.13 310.02 386.29
  L 316.27 406.78
  Q 316.41 407.25 315.92 407.25
  L 304.29 407.22
  Q 303.60 407.22 303.80 406.56
  Z"
/>
</svg>
